<svg width="57" height="19" viewBox="0 0 57 19" fill="none" xmlns="http://www.w3.org/2000/svg">
<path d="M32.6732 14.4872H28.8552V5.0753C28.8552 2.5725 27.0306 0.457466 24.6992 0.175461V18.823H37.4035C37.0994 16.3908 35.1059 14.4872 32.6732 14.4872Z" fill="#001457"/>
<path d="M17.4011 0.175461V18.823H21.5571V14.4872V5.0753C21.5571 2.53725 19.7663 0.457466 17.4011 0.175461Z" fill="#001457"/>
<path d="M12.7718 9.30613C12.0961 8.88312 11.5217 8.60112 11.0824 8.38961C10.5756 8.17811 9.76471 7.8961 8.64971 7.5436C7.46713 7.15584 6.65622 6.83858 6.11561 6.52133C6.11561 6.52133 1.89212 4.12428 3.51394 1.16323C3.31122 1.26898 3.14228 1.40999 2.97334 1.55099C1.6894 2.60851 1.04743 3.94803 1.04743 5.60481C1.04743 7.26159 1.6894 8.49536 2.97334 9.30613C3.6491 9.72914 4.22349 10.0816 4.73031 10.2931C5.27092 10.5399 6.01425 10.8219 6.9941 11.1392C8.04153 11.4917 8.81865 11.8442 9.39304 12.2319C10.0012 12.6549 10.3053 13.1837 10.3053 13.7125C10.3053 14.2765 10.0688 14.6995 9.59577 15.052C9.15653 15.3692 8.58213 15.5102 7.87259 15.5102C6.62243 15.5102 5.40607 15.2282 4.22349 14.7347C4.15591 14.6995 4.12213 14.6995 4.05455 14.6642C3.68288 14.5232 3.27743 14.4527 2.87197 14.4527C1.79076 14.4527 0.81091 14.9815 0.202728 15.8275L0.0337879 16.0743L0 16.2153C1.08121 17.0965 2.33137 17.7663 3.6491 18.2245C4.49379 18.5065 5.33849 18.718 6.1494 18.8591C6.7238 18.9296 7.2644 19.0001 7.80501 19.0001C9.76471 19.0001 11.3865 18.436 12.6367 17.3785C13.8868 16.321 14.5288 14.8757 14.5288 13.1132C14.5288 11.2802 13.9544 10.0464 12.7718 9.30613Z" fill="#001457"/>
<path d="M9.76331 0.139347C7.90498 -0.213159 6.85755 0.456603 6.38452 0.950112C5.81012 1.61987 5.23573 2.71264 5.26952 4.40467L5.30331 4.47517C5.6074 3.77016 6.41831 3.41765 7.8374 3.41765C8.54695 3.41765 9.29028 3.52341 9.99983 3.77016C10.0336 3.77016 10.1012 3.80541 10.135 3.80541C10.4391 3.87591 10.7094 3.94641 11.0473 3.94641C12.196 3.94641 13.2097 3.34715 13.8179 2.43064L14.0544 1.97238C12.6691 1.02061 11.2162 0.421352 9.76331 0.139347Z" fill="#009FD4"/>
<path d="M46.5259 14.6643C43.7552 14.6643 41.559 12.3377 41.559 9.48242C41.559 6.62712 43.789 4.30058 46.5259 4.30058C49.2627 4.30058 51.4927 6.62712 51.4927 9.48242C51.4927 9.87018 51.4589 10.2227 51.3913 10.5752C51.4589 10.6457 51.5265 10.7162 51.594 10.7867L54.6012 13.924C55.2769 12.6197 55.6486 11.104 55.6486 9.48242C55.6486 4.23008 51.5603 0 46.5596 0C41.559 0 37.4707 4.26533 37.4707 9.48242C37.4707 14.7348 41.559 18.9648 46.5596 18.9648C47.776 18.9648 48.9586 18.7181 50.0398 18.2598L46.5259 14.6643Z" fill="#001457"/>
<path d="M57 17.9427C57 17.9427 55.8174 17.2729 55.0065 16.3564C54.2294 15.4751 53.3171 14.1356 52.5738 13.3601L51.9994 12.7608L51.4588 12.1968C49.7356 10.4343 47.0663 10.2933 45.208 11.8091C45.208 11.8091 46.3906 12.4788 47.2015 13.3953C47.9786 14.2766 48.8909 15.6161 49.6342 16.3916L50.2086 16.9909L50.7492 17.5549C52.4386 19.3174 55.1417 19.4585 57 17.9427Z" fill="#009FD4"/>
</svg>
